<?xml version="1.0" encoding="UTF-8" standalone="no"?>
<svg xmlns:xlink="http://www.w3.org/1999/xlink" height="1024" version="1.1" viewBox="0 0 1024 1024" width="1024" xmlns="http://www.w3.org/2000/svg">
  <path d=" M749.88,641.75 C763.31,649.46,754.85,644.24,749.88,641.75 M0,860.16 C0,950.64,73.36,1024,163.84,1024 L860.16,1024 C950.64,1024,1024,950.64,1024,860.16 L1024,163.84 C1024,73.36,950.64,0,860.16,0 L163.84,0 C73.36,0,0,73.36,0,163.84 L0,860.16" fill="#000" fill-rule="evenodd"/>
     <path d="M32,163.84 C32,91.03,91.03,32,163.84,32 L860.16,32 C932.97,32,992,91.03,992,163.84 L992,860.16 C992,932.97,932.97,992,860.16,992 L163.84,992 C91.03,992,32,932.97,32,860.16 L32,163.84
    M170.10500000000002,56.42
    A16,16,0,0,0,170.10500000000002,88.42
    A16,16,0,0,0,170.10500000000002,56.42
    M218.9475,56.42
    A16,16,0,0,0,218.9475,88.42
    A16,16,0,0,0,218.9475,56.42
    M267.79,56.42
    A16,16,0,0,0,267.79,88.42
    A16,16,0,0,0,267.79,56.42
    M316.6325,56.42
    A16,16,0,0,0,316.6325,88.42
    A16,16,0,0,0,316.6325,56.42
    M414.31750000000005,56.42
    A16,16,0,0,0,414.31750000000005,88.42
    A16,16,0,0,0,414.31750000000005,56.42
    M560.845,56.42
    A16,16,0,0,0,560.845,88.42
    A16,16,0,0,0,560.845,56.42
    M805.0575,56.42
    A16,16,0,0,0,805.0575,88.42
    A16,16,0,0,0,805.0575,56.42
    M121.2625,105.2625
    A16,16,0,0,0,121.2625,137.2625
    A16,16,0,0,0,121.2625,105.2625
    M218.9475,105.2625
    A16,16,0,0,0,218.9475,137.2625
    A16,16,0,0,0,218.9475,105.2625
    M267.79,105.2625
    A16,16,0,0,0,267.79,137.2625
    A16,16,0,0,0,267.79,105.2625
    M316.6325,105.2625
    A16,16,0,0,0,316.6325,137.2625
    A16,16,0,0,0,316.6325,105.2625
    M365.475,105.2625
    A16,16,0,0,0,365.475,137.2625
    A16,16,0,0,0,365.475,105.2625
    M560.845,105.2625
    A16,16,0,0,0,560.845,137.2625
    A16,16,0,0,0,560.845,105.2625
    M609.6875,105.2625
    A16,16,0,0,0,609.6875,137.2625
    A16,16,0,0,0,609.6875,105.2625
    M658.53,105.2625
    A16,16,0,0,0,658.53,137.2625
    A16,16,0,0,0,658.53,105.2625
    M707.3725,105.2625
    A16,16,0,0,0,707.3725,137.2625
    A16,16,0,0,0,707.3725,105.2625
    M805.0575,105.2625
    A16,16,0,0,0,805.0575,137.2625
    A16,16,0,0,0,805.0575,105.2625
    M170.10500000000002,154.10500000000002
    A16,16,0,0,0,170.10500000000002,186.10500000000002
    A16,16,0,0,0,170.10500000000002,154.10500000000002
    M218.9475,154.10500000000002
    A16,16,0,0,0,218.9475,186.10500000000002
    A16,16,0,0,0,218.9475,154.10500000000002
    M316.6325,154.10500000000002
    A16,16,0,0,0,316.6325,186.10500000000002
    A16,16,0,0,0,316.6325,154.10500000000002
    M414.31750000000005,154.10500000000002
    A16,16,0,0,0,414.31750000000005,186.10500000000002
    A16,16,0,0,0,414.31750000000005,154.10500000000002
    M463.16,154.10500000000002
    A16,16,0,0,0,463.16,186.10500000000002
    A16,16,0,0,0,463.16,154.10500000000002
    M512.0024999999999,154.10500000000002
    A16,16,0,0,0,512.0024999999999,186.10500000000002
    A16,16,0,0,0,512.0024999999999,154.10500000000002
    M707.3725,154.10500000000002
    A16,16,0,0,0,707.3725,186.10500000000002
    A16,16,0,0,0,707.3725,154.10500000000002
    M902.7425,154.10500000000002
    A16,16,0,0,0,902.7425,186.10500000000002
    A16,16,0,0,0,902.7425,154.10500000000002
    M218.9475,202.9475
    A16,16,0,0,0,218.9475,234.9475
    A16,16,0,0,0,218.9475,202.9475
    M267.79,202.9475
    A16,16,0,0,0,267.79,234.9475
    A16,16,0,0,0,267.79,202.9475
    M756.215,202.9475
    A16,16,0,0,0,756.215,234.9475
    A16,16,0,0,0,756.215,202.9475
    M853.9,202.9475
    A16,16,0,0,0,853.9,234.9475
    A16,16,0,0,0,853.9,202.9475
    M902.7425,202.9475
    A16,16,0,0,0,902.7425,234.9475
    A16,16,0,0,0,902.7425,202.9475
    M951.5849999999999,202.9475
    A16,16,0,0,0,951.5849999999999,234.9475
    A16,16,0,0,0,951.5849999999999,202.9475
    M72.42,251.79000000000002
    A16,16,0,0,0,72.42,283.79
    A16,16,0,0,0,72.42,251.79000000000002
    M218.9475,251.79000000000002
    A16,16,0,0,0,218.9475,283.79
    A16,16,0,0,0,218.9475,251.79000000000002
    M267.79,251.79000000000002
    A16,16,0,0,0,267.79,283.79
    A16,16,0,0,0,267.79,251.79000000000002
    M805.0575,251.79000000000002
    A16,16,0,0,0,805.0575,283.79
    A16,16,0,0,0,805.0575,251.79000000000002
    M951.5849999999999,251.79000000000002
    A16,16,0,0,0,951.5849999999999,283.79
    A16,16,0,0,0,951.5849999999999,251.79000000000002
    M72.42,300.6325
    A16,16,0,0,0,72.42,332.6325
    A16,16,0,0,0,72.42,300.6325
    M902.7425,300.6325
    A16,16,0,0,0,902.7425,332.6325
    A16,16,0,0,0,902.7425,300.6325
    M170.10500000000002,349.475
    A16,16,0,0,0,170.10500000000002,381.475
    A16,16,0,0,0,170.10500000000002,349.475
    M951.5849999999999,349.475
    A16,16,0,0,0,951.5849999999999,381.475
    A16,16,0,0,0,951.5849999999999,349.475
    M170.10500000000002,398.31750000000005
    A16,16,0,0,0,170.10500000000002,430.31750000000005
    A16,16,0,0,0,170.10500000000002,398.31750000000005
    M853.9,398.31750000000005
    A16,16,0,0,0,853.9,430.31750000000005
    A16,16,0,0,0,853.9,398.31750000000005
    M951.5849999999999,398.31750000000005
    A16,16,0,0,0,951.5849999999999,430.31750000000005
    A16,16,0,0,0,951.5849999999999,398.31750000000005
    M170.10500000000002,447.16
    A16,16,0,0,0,170.10500000000002,479.16
    A16,16,0,0,0,170.10500000000002,447.16
    M853.9,447.16
    A16,16,0,0,0,853.9,479.16
    A16,16,0,0,0,853.9,447.16
    M902.7425,447.16
    A16,16,0,0,0,902.7425,479.16
    A16,16,0,0,0,902.7425,447.16
    M72.42,496.0025
    A16,16,0,0,0,72.42,528.0025
    A16,16,0,0,0,72.42,496.0025
    M121.2625,496.0025
    A16,16,0,0,0,121.2625,528.0025
    A16,16,0,0,0,121.2625,496.0025
    M170.10500000000002,496.0025
    A16,16,0,0,0,170.10500000000002,528.0025
    A16,16,0,0,0,170.10500000000002,496.0025
    M853.9,496.0025
    A16,16,0,0,0,853.9,528.0025
    A16,16,0,0,0,853.9,496.0025
    M902.7425,496.0025
    A16,16,0,0,0,902.7425,528.0025
    A16,16,0,0,0,902.7425,496.0025
    M951.5849999999999,496.0025
    A16,16,0,0,0,951.5849999999999,528.0025
    A16,16,0,0,0,951.5849999999999,496.0025
    M72.42,544.845
    A16,16,0,0,0,72.42,576.845
    A16,16,0,0,0,72.42,544.845
    M121.2625,544.845
    A16,16,0,0,0,121.2625,576.845
    A16,16,0,0,0,121.2625,544.845
    M853.9,544.845
    A16,16,0,0,0,853.9,576.845
    A16,16,0,0,0,853.9,544.845
    M902.7425,544.845
    A16,16,0,0,0,902.7425,576.845
    A16,16,0,0,0,902.7425,544.845
    M72.42,593.6875
    A16,16,0,0,0,72.42,625.6875
    A16,16,0,0,0,72.42,593.6875
    M853.9,593.6875
    A16,16,0,0,0,853.9,625.6875
    A16,16,0,0,0,853.9,593.6875
    M902.7425,593.6875
    A16,16,0,0,0,902.7425,625.6875
    A16,16,0,0,0,902.7425,593.6875
    M951.5849999999999,593.6875
    A16,16,0,0,0,951.5849999999999,625.6875
    A16,16,0,0,0,951.5849999999999,593.6875
    M218.9475,691.3725
    A16,16,0,0,0,218.9475,723.3725
    A16,16,0,0,0,218.9475,691.3725
    M805.0575,691.3725
    A16,16,0,0,0,805.0575,723.3725
    A16,16,0,0,0,805.0575,691.3725
    M951.5849999999999,691.3725
    A16,16,0,0,0,951.5849999999999,723.3725
    A16,16,0,0,0,951.5849999999999,691.3725
    M756.215,740.215
    A16,16,0,0,0,756.215,772.215
    A16,16,0,0,0,756.215,740.215
    M805.0575,740.215
    A16,16,0,0,0,805.0575,772.215
    A16,16,0,0,0,805.0575,740.215
    M951.5849999999999,740.215
    A16,16,0,0,0,951.5849999999999,772.215
    A16,16,0,0,0,951.5849999999999,740.215
    M72.42,789.0575
    A16,16,0,0,0,72.42,821.0575
    A16,16,0,0,0,72.42,789.0575
    M121.2625,789.0575
    A16,16,0,0,0,121.2625,821.0575
    A16,16,0,0,0,121.2625,789.0575
    M316.6325,789.0575
    A16,16,0,0,0,316.6325,821.0575
    A16,16,0,0,0,316.6325,789.0575
    M805.0575,789.0575
    A16,16,0,0,0,805.0575,821.0575
    A16,16,0,0,0,805.0575,789.0575
    M902.7425,789.0575
    A16,16,0,0,0,902.7425,821.0575
    A16,16,0,0,0,902.7425,789.0575
    M72.42,837.9
    A16,16,0,0,0,72.42,869.9
    A16,16,0,0,0,72.42,837.9
    M170.10500000000002,837.9
    A16,16,0,0,0,170.10500000000002,869.9
    A16,16,0,0,0,170.10500000000002,837.9
    M267.79,837.9
    A16,16,0,0,0,267.79,869.9
    A16,16,0,0,0,267.79,837.9
    M365.475,837.9
    A16,16,0,0,0,365.475,869.9
    A16,16,0,0,0,365.475,837.9
    M658.53,837.9
    A16,16,0,0,0,658.53,869.9
    A16,16,0,0,0,658.53,837.9
    M707.3725,837.9
    A16,16,0,0,0,707.3725,869.9
    A16,16,0,0,0,707.3725,837.9
    M756.215,837.9
    A16,16,0,0,0,756.215,869.9
    A16,16,0,0,0,756.215,837.9
    M805.0575,837.9
    A16,16,0,0,0,805.0575,869.9
    A16,16,0,0,0,805.0575,837.9
    M853.9,837.9
    A16,16,0,0,0,853.9,869.9
    A16,16,0,0,0,853.9,837.9
    M902.7425,837.9
    A16,16,0,0,0,902.7425,869.9
    A16,16,0,0,0,902.7425,837.9
    M951.5849999999999,837.9
    A16,16,0,0,0,951.5849999999999,869.9
    A16,16,0,0,0,951.5849999999999,837.9
    M170.10500000000002,886.7425
    A16,16,0,0,0,170.10500000000002,918.7425
    A16,16,0,0,0,170.10500000000002,886.7425
    M365.475,886.7425
    A16,16,0,0,0,365.475,918.7425
    A16,16,0,0,0,365.475,886.7425
    M414.31750000000005,886.7425
    A16,16,0,0,0,414.31750000000005,918.7425
    A16,16,0,0,0,414.31750000000005,886.7425
    M463.16,886.7425
    A16,16,0,0,0,463.16,918.7425
    A16,16,0,0,0,463.16,886.7425
    M512.0024999999999,886.7425
    A16,16,0,0,0,512.0024999999999,918.7425
    A16,16,0,0,0,512.0024999999999,886.7425
    M658.53,886.7425
    A16,16,0,0,0,658.53,918.7425
    A16,16,0,0,0,658.53,886.7425
    M756.215,886.7425
    A16,16,0,0,0,756.215,918.7425
    A16,16,0,0,0,756.215,886.7425
    M853.9,886.7425
    A16,16,0,0,0,853.9,918.7425
    A16,16,0,0,0,853.9,886.7425
    M902.7425,886.7425
    A16,16,0,0,0,902.7425,918.7425
    A16,16,0,0,0,902.7425,886.7425
    M170.10500000000002,935.5849999999999
    A16,16,0,0,0,170.10500000000002,967.5849999999999
    A16,16,0,0,0,170.10500000000002,935.5849999999999
    M218.9475,935.5849999999999
    A16,16,0,0,0,218.9475,967.5849999999999
    A16,16,0,0,0,218.9475,935.5849999999999
    M463.16,935.5849999999999
    A16,16,0,0,0,463.16,967.5849999999999
    A16,16,0,0,0,463.16,935.5849999999999
    M560.845,935.5849999999999
    A16,16,0,0,0,560.845,967.5849999999999
    A16,16,0,0,0,560.845,935.5849999999999
    M658.53,935.5849999999999
    A16,16,0,0,0,658.53,967.5849999999999
    A16,16,0,0,0,658.53,935.5849999999999
    M707.3725,935.5849999999999
    A16,16,0,0,0,707.3725,967.5849999999999
    A16,16,0,0,0,707.3725,935.5849999999999
    M805.0575,935.5849999999999
    A16,16,0,0,0,805.0575,967.5849999999999
    A16,16,0,0,0,805.0575,935.5849999999999
    " fill="#FFFC00"/>
</svg>
